{
	"asset":{
		"generator":"Khronos glTF Blender I/O v3.6.28",
		"version":"2.0"
	},
	"scene":0,
	"scenes":[
		{
			"name":"Scene",
			"nodes":[
				0,
				1,
				2,
				3
			]
		}
	],
	"nodes":[
		{
			"name":"Reference Photo",
			"rotation":[
				0.5,
				-0.5,
				0.5,
				0.5
			],
			"translation":[
				0,
				-0.07004821300506592,
				-0.0026067905128002167
			]
		},
		{
			"mesh":0,
			"name":"Body",
			"scale":[
				1.247044324874878,
				1.247044324874878,
				1.247044324874878
			],
			"translation":[
				0.058369360864162445,
				-0.9512593150138855,
				-0.2816314399242401
			]
		},
		{
			"mesh":1,
			"name":"Leaf",
			"translation":[
				0,
				0,
				3.228590488433838
			]
		},
		{
			"mesh":2,
			"name":"Stem",
			"scale":[
				1.247044324874878,
				1.247044324874878,
				1.247044324874878
			],
			"translation":[
				0.058369360864162445,
				-0.9512593150138855,
				-0.2816314399242401
			]
		}
	],
	"materials":[
		{
			"doubleSided":true,
			"name":"Pear Body Material",
			"pbrMetallicRoughness":{
				"baseColorTexture":{
					"index":0
				},
				"metallicFactor":0,
				"roughnessFactor":0.5
			}
		},
		{
			"doubleSided":true,
			"name":"Material.002",
			"pbrMetallicRoughness":{
				"baseColorFactor":[
					0.09758716821670532,
					0,
					0.351532518863678,
					1
				],
				"metallicFactor":0,
				"roughnessFactor":0.5
			}
		},
		{
			"doubleSided":true,
			"name":"Material.002",
			"pbrMetallicRoughness":{
				"baseColorFactor":[
					0.09758716821670532,
					0,
					0.351532518863678,
					1
				],
				"metallicFactor":0,
				"roughnessFactor":0.5
			}
		}
	],
	"meshes":[
		{
			"name":"Sphere.001",
			"primitives":[
				{
					"attributes":{
						"POSITION":0,
						"NORMAL":1,
						"TEXCOORD_0":2
					},
					"indices":3,
					"material":0
				}
			]
		},
		{
			"name":"Plane",
			"primitives":[
				{
					"attributes":{
						"POSITION":4,
						"NORMAL":5,
						"TEXCOORD_0":6
					},
					"indices":7,
					"material":1
				}
			]
		},
		{
			"name":"Sphere.002",
			"primitives":[
				{
					"attributes":{
						"POSITION":8,
						"NORMAL":9,
						"TEXCOORD_0":10
					},
					"indices":11,
					"material":2
				}
			]
		}
	],
	"textures":[
		{
			"sampler":0,
			"source":0
		}
	],
	"images":[
		{
			"bufferView":4,
			"mimeType":"image/png",
			"name":"Pear Body White Texture"
		}
	],
	"accessors":[
		{
			"bufferView":0,
			"componentType":5126,
			"count":39730,
			"max":[
				1.0067116022109985,
				1.4166442155838013,
				1.0190261602401733
			],
			"min":[
				-1.0067110061645508,
				-0.7688952684402466,
				-0.9956520199775696
			],
			"type":"VEC3"
		},
		{
			"bufferView":1,
			"componentType":5126,
			"count":39730,
			"type":"VEC3"
		},
		{
			"bufferView":2,
			"componentType":5126,
			"count":39730,
			"type":"VEC2"
		},
		{
			"bufferView":3,
			"componentType":5123,
			"count":60672,
			"type":"SCALAR"
		},
		{
			"bufferView":5,
			"componentType":5126,
			"count":256,
			"max":[
				0.3023076057434082,
				1.4569854736328125,
				-1.8291029930114746
			],
			"min":[
				-0.2935999631881714,
				0.5436646342277527,
				-3.2433743476867676
			],
			"type":"VEC3"
		},
		{
			"bufferView":6,
			"componentType":5126,
			"count":256,
			"type":"VEC3"
		},
		{
			"bufferView":7,
			"componentType":5126,
			"count":256,
			"type":"VEC2"
		},
		{
			"bufferView":8,
			"componentType":5123,
			"count":384,
			"type":"SCALAR"
		},
		{
			"bufferView":9,
			"componentType":5126,
			"count":10744,
			"max":[
				0.055583298206329346,
				2.1815407276153564,
				0.2846828103065491
			],
			"min":[
				-0.055583126842975616,
				1.4166440963745117,
				0.12421512603759766
			],
			"type":"VEC3"
		},
		{
			"bufferView":10,
			"componentType":5126,
			"count":10744,
			"type":"VEC3"
		},
		{
			"bufferView":11,
			"componentType":5126,
			"count":10744,
			"type":"VEC2"
		},
		{
			"bufferView":12,
			"componentType":5123,
			"count":16128,
			"type":"SCALAR"
		}
	],
	"bufferViews":[
		{
			"buffer":0,
			"byteLength":476760,
			"byteOffset":0,
			"target":34962
		},
		{
			"buffer":0,
			"byteLength":476760,
			"byteOffset":476760,
			"target":34962
		},
		{
			"buffer":0,
			"byteLength":317840,
			"byteOffset":953520,
			"target":34962
		},
		{
			"buffer":0,
			"byteLength":121344,
			"byteOffset":1271360,
			"target":34963
		},
		{
			"buffer":0,
			"byteLength":23572,
			"byteOffset":1392704
		},
		{
			"buffer":0,
			"byteLength":3072,
			"byteOffset":1416276,
			"target":34962
		},
		{
			"buffer":0,
			"byteLength":3072,
			"byteOffset":1419348,
			"target":34962
		},
		{
			"buffer":0,
			"byteLength":2048,
			"byteOffset":1422420,
			"target":34962
		},
		{
			"buffer":0,
			"byteLength":768,
			"byteOffset":1424468,
			"target":34963
		},
		{
			"buffer":0,
			"byteLength":128928,
			"byteOffset":1425236,
			"target":34962
		},
		{
			"buffer":0,
			"byteLength":128928,
			"byteOffset":1554164,
			"target":34962
		},
		{
			"buffer":0,
			"byteLength":85952,
			"byteOffset":1683092,
			"target":34962
		},
		{
			"buffer":0,
			"byteLength":32256,
			"byteOffset":1769044,
			"target":34963
		}
	],
	"samplers":[
		{
			"magFilter":9729,
			"minFilter":9987
		}
	],
	"buffers":[
		{
			"byteLength":1801300,
			"uri":"data:application/octet-stream;base64,"
		}
	]
}
